<svg width="24" height="24" viewBox="0 0 24 24" xmlns="http://www.w3.org/2000/svg"><path d="m18 0h3v11h-3zM3 6.1875h3V11H3zM14 0h3v2.0625h-3zm-4 .6875h3v2.75h-3zM7 4.125h3v2.75H7z" stroke-width=".82916"/><path d="m4.5 24q-.6.0-1.05-.275T3 23.08333v-9.1667q0-.35139.45-.63403.45-.28264 1.05-.28264h15q.575.0 1.0375.28264.4625.28264.4625.63403v9.1667q0 .36667-.4625.64167T19.5 24zm0-.91667h3.925v-3.2083h-.5q-.325.0-.5375-.12986t-.2125-.32847v-5.5H4.5zm11.075.0H19.5v-9.1667h-2.675v5.5q0 .19861-.2125.32847t-.5375.12986h-.5zm-6.15.0h5.15v-3.2083h-.5q-.325.0-.5375-.12986t-.2125-.32847v-5.5h-2.65v5.5q0 .19861-.2125.32847t-.5375.12986h-.5z" stroke-width=".39087"/></svg>